<svg width="58" height="101" viewBox="0 0 58 101" fill="none" xmlns="http://www.w3.org/2000/svg">
<path d="M39.6862 50.4145L2.1298 12.858C0.747743 11.4271 -0.0169999 9.51056 0.000286814 7.52123C0.0175735 5.5319 0.815507 3.62895 2.22223 2.22223C3.62895 0.815507 5.5319 0.0175735 7.52123 0.000286814C9.51056 -0.0169999 11.4271 0.747743 12.858 2.1298L55.7786 45.0503C57.201 46.4731 58 48.4026 58 50.4145C58 52.4263 57.201 54.3558 55.7786 55.7786L12.858 98.6991C11.4271 100.081 9.51056 100.846 7.52123 100.829C5.5319 100.811 3.62895 100.013 2.22223 98.6067C0.815507 97.2 0.0175735 95.297 0.000286814 93.3077C-0.0169999 91.3184 0.747743 89.4018 2.1298 87.9709L39.6862 50.4145Z" fill="black"/>
</svg>
